<svg id="Layer_1" data-name="Layer 1" xmlns="http://www.w3.org/2000/svg" viewBox="0 0 273.96 39.45"><defs><style>.cls-1,.cls-2{fill:#000}.cls-1{fill-rule:evenodd}</style></defs><title>logo</title><path class="cls-1" d="M20.72.27A19.73 19.73 0 1 0 40.45 20 19.72 19.72 0 0 0 20.72.27zm12.9 32.63A18.25 18.25 0 0 1 7.82 7.1a18.25 18.25 0 0 1 25.8 25.8z" transform="translate(-1 -.27)"/><path class="cls-1" d="M33.8 15.23c-.75-1.21-2-3.49-2.93-5.32s-3.1-2.06-5.75-3.37c-1.55-.77-1.21 0-4.4 0s-2.86-.77-4.4 0C13.68 7.85 11.61 8 10.58 9.91S8.39 14 7.64 15.23c-1 1.55-.87 1.71-.29 2.43a8.75 8.75 0 0 0 2.46 1.6c.93.35 1.2.27 2.07-.95.59-.83 1.12-1.65 1.12-1.65a55.24 55.24 0 0 1 0 14c-.34 2.43-.51 2.11 1.36 2.6a33.77 33.77 0 0 0 6.41.52 33.81 33.81 0 0 0 6.41-.52c1.86-.49 1.7-.17 1.35-2.6a55.27 55.27 0 0 1 0-14s.53.82 1.12 1.65c.87 1.21 1.14 1.3 2.07.95a8.74 8.74 0 0 0 2.46-1.6c.5-.73.58-.89-.38-2.43zM20.72 10a3.3 3.3 0 0 1-3.12-2.4h.23a12.92 12.92 0 0 0 2.89.28 12.92 12.92 0 0 0 2.89-.28h.24a3.3 3.3 0 0 1-3.13 2.4z" transform="translate(-1 -.27)"/><path class="cls-2" d="M61.8 11.44A7.31 7.31 0 0 1 64.06 13L62 15.12a3.62 3.62 0 0 0-3-1.26q-1.89 0-2.42.89a1.23 1.23 0 0 0 0 1.52 4.16 4.16 0 0 0 2.42.95 7.82 7.82 0 0 1 3.63 1.31 4 4 0 0 1 1.63 3.52 4 4 0 0 1-1.74 3.26 6.39 6.39 0 0 1-4.06 1.37 9.36 9.36 0 0 1-3.67-.63 8 8 0 0 1-2.52-1.68l2.1-2.1A5 5 0 0 0 58 23.74c1.4 0 2.28-.29 2.62-.89a1.67 1.67 0 0 0 0-1.79Q60.07 20.17 58 20a8.47 8.47 0 0 1-3.47-1.16 3.49 3.49 0 0 1-1.58-3.26 3.93 3.93 0 0 1 1.79-3.36 6.31 6.31 0 0 1 3.69-1.27 8.77 8.77 0 0 1 3.37.49zm7.69 15.25l6.31-15.78H79l6.3 15.77h-3.39L81 24.27h-7.19l-.95 2.42zm8-11.57l-2.4 6h4.71zM94 10.91v12.83h8.42v2.95H90.88V10.91zm27.16 0v2.95h-5.26v12.83h-3.16V13.86h-5.26v-2.95zm4.65 0h3.7l3.66 5.16 3.75-5.16h3.62l-5.79 7.89v7.89h-3.15V18.8zm21.78 13.51a7.66 7.66 0 0 1-2.27-5.65 7.75 7.75 0 0 1 7.88-7.86A8.54 8.54 0 0 1 159 13l-2.11 2.3a5.8 5.8 0 0 0-3.69-1.26 4.49 4.49 0 0 0-4.72 4.69 4.75 4.75 0 0 0 1.31 3.49 4.66 4.66 0 0 0 3.43 1.29 5.65 5.65 0 0 0 3.67-1.25l2.11 2.3a8.5 8.5 0 0 1-5.79 2.1 7.69 7.69 0 0 1-5.62-2.24zm20.96-13.51v9.15a3.17 3.17 0 0 0 1 2.63 4.53 4.53 0 0 0 5.26 0 3.17 3.17 0 0 0 1.05-2.63v-9.15h3.15v10a5.22 5.22 0 0 1-1.95 4.1 7.95 7.95 0 0 1-9.78 0 5.23 5.23 0 0 1-1.95-4.1v-10zm25.7.53a7.38 7.38 0 0 1 2.26 1.56l-2.11 2.1a3.63 3.63 0 0 0-2.95-1.26q-1.9 0-2.42.89a1.23 1.23 0 0 0 0 1.52 4.15 4.15 0 0 0 2.42.95 7.85 7.85 0 0 1 3.63 1.31 4 4 0 0 1 1.63 3.52 4 4 0 0 1-1.71 3.29 6.38 6.38 0 0 1-4.05 1.37 9.37 9.37 0 0 1-3.67-.63 8 8 0 0 1-2.53-1.68l2.1-2.1a5 5 0 0 0 3.58 1.47c1.4 0 2.28-.29 2.63-.89a1.67 1.67 0 0 0 0-1.79c-.35-.6-1.22-1-2.63-1.11a8.46 8.46 0 0 1-3.47-1.16 3.49 3.49 0 0 1-1.58-3.26 3.93 3.93 0 0 1 1.79-3.36 6.31 6.31 0 0 1 3.69-1.27 8.79 8.79 0 0 1 3.39.53zm21.4-.53v2.95h-5.26v12.83h-3.16V13.86H202v-2.95zm7.04 13.51a7.64 7.64 0 0 1-2.26-5.62 7.89 7.89 0 1 1 15.78 0 8 8 0 0 1-13.52 5.62zm5.64-.68a4.42 4.42 0 0 0 3.41-1.42A5 5 0 0 0 233 18.8a5 5 0 0 0-1.32-3.52 4.82 4.82 0 0 0-6.84 0 5 5 0 0 0-1.31 3.52 5 5 0 0 0 1.31 3.52 4.46 4.46 0 0 0 3.48 1.42zm13.45 2.95V10.91h1.05l6.84 7.78 6.85-7.78h1.05v15.78h-3.16v-9.15l-4.73 5.26-4.74-5.26v9.15zm30.71-15.25a7.29 7.29 0 0 1 2.26 1.56l-2.1 2.1a3.62 3.62 0 0 0-2.95-1.26c-1.26 0-2.07.3-2.42.89a1.23 1.23 0 0 0 0 1.52 4.17 4.17 0 0 0 2.42.95 7.82 7.82 0 0 1 3.63 1.31 4 4 0 0 1 1.67 3.55 4.06 4.06 0 0 1-1.74 3.26 6.39 6.39 0 0 1-4.05 1.37 9.33 9.33 0 0 1-3.67-.63 8 8 0 0 1-2.54-1.68l2.1-2.1a5 5 0 0 0 3.58 1.47c1.4 0 2.28-.29 2.62-.89a1.66 1.66 0 0 0 0-1.79q-.52-.89-2.62-1.11a8.47 8.47 0 0 1-3.47-1.16 3.49 3.49 0 0 1-1.58-3.26 3.93 3.93 0 0 1 1.79-3.36 6.33 6.33 0 0 1 3.69-1.27 8.77 8.77 0 0 1 3.38.53z" transform="translate(-1 -.27)"/></svg>